# xmcd
#
# Track frame offsets:
#	150
#	14784
#	31176
#	40861
#	57611
#	77468
#	92120
#	107027
#	120225
#	135389
#	148933
#	168520
#	182643
#	197832
#	212890
#
# Disc length: 3321 seconds
#
# Revision: 1
# Processed by: cddbd v1.5.1PL0 Copyright (c) Steve Scherf et al.
# Submitted via: audiograbber 1.83.01
#
DISCID=d20cf70f
DTITLE=Morgan String Band - Live At The Studio
DYEAR=2005
DGENRE=Bluegrass
TTITLE0=Shucking The Corn
TTITLE1=Stop Rocking The Boat
TTITLE2=Blue Night
TTITLE3=Jones Road
TTITLE4=The End Of The Innocence
TTITLE5=Wild Bill Jones
TTITLE6=Guess Who Should Have Known
TTITLE7=Lonesome Fiddle Blues
TTITLE8=Duncan and Brady
TTITLE9=Right Before My Eyes
TTITLE10=Remington Ride
TTITLE11=Kentucky Waltz
TTITLE12=Lower On The Hog
TTITLE13=Are You Teasing Me
TTITLE14=Old Joe Clark
EXTD=
EXTT0=
EXTT1=
EXTT2=
EXTT3=
EXTT4=
EXTT5=
EXTT6=
EXTT7=
EXTT8=
EXTT9=
EXTT10=
EXTT11=
EXTT12=
EXTT13=
EXTT14=
PLAYORDER=
